<svg id="Capa_1" data-name="Capa 1" xmlns="http://www.w3.org/2000/svg" width="250.1771mm" height="84.8915mm" viewBox="0 0 709.1633 240.6375"><defs><style>.cls-1{fill:#d0080f;}</style></defs><path class="cls-1" d="M286.7178,148.36l-1.9082-8.3767H266.6949l-4.5583,8.3767H250.0842l25.06-45.2013h13.76L300.0067,148.36Zm-5.7929-25.6509a36.881,36.881,0,0,1-1.1964-7.5061h-.1568a63.0484,63.0484,0,0,1-3.7883,8.043l-4.8076,8.4933h12.1388Z"/><path class="cls-1" d="M335.63,148.36l-9.2071-19.48a82.9384,82.9384,0,0,1-3.8405-9.927c-.3037,3.354-.8747,7.9123-1.5744,12.1932L318.213,148.36H306.5487l7.3291-45.2013h15.549l8.616,17.89c1.7232,3.6716,3.2675,7.6288,4.5684,11.1013.2353-3.8807,1.05-9.8425,1.7513-14.1274l2.4049-14.8634h11.67L351.1086,148.36Z"/><path class="cls-1" d="M437.9469,148.3593l-9.5791-17.6844h-.4725l-2.8533,17.6844H412.9073L420.24,103.158c4.4759-.2614,10.1582-.3318,16.46-.3318,12.36,0,19.2065,3.8144,17.6643,13.3875-1.0013,6.0926-6.3921,11.055-13.6207,12.5229,1.1139,1.7493,2.1535,3.4142,3.2232,5.0851l8.7568,14.5376Zm-3.571-36.9633c-1.2406,0-2.6461.07-3.362.1347l-1.878,11.5838c.6072.06,1.8438.1328,3.0121.1328,5.1253,0,8.7708-2.3445,9.3921-6.1589.5711-3.553-1.49-5.6924-7.1642-5.6924"/><polygon class="cls-1" points="458.977 148.36 466.308 103.159 495.864 103.159 494.442 111.923 477.023 111.923 475.566 120.901 492.052 120.901 490.672 129.411 474.182 129.411 472.572 139.384 489.981 139.384 488.535 148.36 458.977 148.36"/><path class="cls-1" d="M531.4747,148.36l-1.9122-8.3767H511.4458l-4.5483,8.3767H494.8512l25.0558-45.2013h13.7735L544.78,148.36Zm-5.7989-25.6509a39.25,39.25,0,0,1-1.1924-7.5061h-.1569a62.7354,62.7354,0,0,1-3.7862,8.043l-4.7956,8.4933h12.1268Z"/><path class="cls-1" d="M578.7776,148.36l-9.2071-19.48a83.4276,83.4276,0,0,1-3.8285-9.927c-.3116,3.354-.8968,7.9123-1.59,12.1932L561.3566,148.36h-11.66l7.3251-45.2013h15.561l8.606,17.89c1.7413,3.6716,3.2654,7.6288,4.5784,11.1013.2393-3.8807,1.0456-9.8425,1.7433-14.1274l2.4169-14.8634h11.6623L594.2522,148.36Z"/><polygon class="cls-1" points="606.385 148.36 613.728 103.159 625.855 103.159 618.52 148.36 606.385 148.36"/><path class="cls-1" d="M222.5872,84.6876c-2.7064-7.1723-8.5778-12.9672-16.9746-16.7635-7.9022-3.5791-17.8614-5.2983-28.7877-4.9886a112.434,112.434,0,0,0-65.6,24.7722c-8.4009,6.9934-14.7407,14.8614-18.3037,22.7656-3.8043,8.3988-4.3714,16.6288-1.6569,23.8031,3.9994,10.6126,14.6482,17.9558,29.97,20.6663,15.1469,2.6944,33.1148.5308,50.574-6.0543a108.9828,108.9828,0,0,0,30.8266-17.64c8.4049-6.9813,14.7286-14.8674,18.2937-22.7656a34.9929,34.9929,0,0,0,3.34-14.4049,26.4154,26.4154,0,0,0-1.681-9.39M139.13,146.9962c-2.1938-.6836-2.7125-2.262-.8084-5.5053l9.7642-16.4881h26.8091l2.3385,10.4116a5.06,5.06,0,0,1-1.7976,4.9022c-.6253.2513-1.2427.4907-1.862.7319a88.0339,88.0339,0,0,1-34.4438,5.9477M151.98,118.9284l15.3439-25.3373,6.1066,25.3373Zm44.7067,9.4685a2.3855,2.3855,0,0,1-3.5792-1.4155l-11.435-44.0351s-1.5945-7.7091-8.3466-7.7091h-1.84L161.8892,91.54l-30.76,49.11c-2.0308,3.2111-4.1984,4.1441-6.41,3.9511-9.4424-2.9438-16.482-8.4511-19.4116-16.2106-7.0235-18.5852,12.1569-43.04,42.8326-54.6357,30.6758-11.608,61.247-5.9437,68.2545,12.6456,5.0208,13.2789-3.3318,29.5638-19.7072,41.9961"/><path class="cls-1" d="M386.4066,103.164c-5.4994-.0362-11.4391.1307-14.6281.2232l-1.5362.0322-7.5825,45.26,4.6931.1749c3.2735.1307,6.6817.2916,11.0811.3178,9.8848.0683,17.97-2.9981,23.3849-8.8593,4.8177-5.1878,7.2608-12.3641,6.8847-20.1677-.5187-10.8459-8.433-16.8842-22.297-16.9807M379.3007,139.5c-.754,0-1.7373-.0583-2.6039-.1367.38-2.3928,4.0154-24.8286,4.2949-26.582,1.2607-.0562,2.8291-.09,4.679-.0784,9.0523.07,10.4618,4.1723,10.6528,8.18.3057,6.4866-2.8492,18.7139-17.0228,18.6174"/></svg>